# xmcd
#
# Track frame offsets: 
#        183
#        17438
#        34990
#        53828
#        72523
#        90585
#        112543
#        130833
#        147715
#        165940
#
# Disc length: 2469 seconds
#
# Revision: 0
# Processed by: cddbd v1.5.2PL0 Copyright (c) Steve Scherf et al.
# Submitted via: ExactAudioCopy v0.95a5
#
DISCID=7d09a30a
DTITLE=張國榮 - Salute
DYEAR=1989
DGENRE=
TTITLE0=童年時
TTITLE1=但願人長久
TTITLE2=紙船
TTITLE3=明星
TTITLE4=從不知
TTITLE5=滴汗
TTITLE6=漫天風雨
TTITLE7=這是愛
TTITLE8=雪中情
TTITLE9=似水流年
EXTD=
EXTT0=
EXTT1=
EXTT2=
EXTT3=
EXTT4=
EXTT5=
EXTT6=
EXTT7=
EXTT8=
EXTT9=
PLAYORDER=
